<?xml version="1.0" encoding="UTF-8"?>
<svg width="30px" height="30px" viewBox="0 0 30 30" version="1.1" xmlns="http://www.w3.org/2000/svg" xmlns:xlink="http://www.w3.org/1999/xlink">
    <!-- Generator: sketchtool 53.2 (72643) - https://sketchapp.com -->
    <title>D81B46B0-B2E0-4DFF-BFE4-8D2E2262D985</title>
    <desc>Created with sketchtool.</desc>
    <g id="Symbols" stroke="none" stroke-width="1" fill="none" fill-rule="evenodd" opacity="0.8">
        <g id="Icon/Check/Unselected-Copy" fill="#013CA6" fill-rule="nonzero">
            <g id="check" transform="translate(3.000000, 3.000000)">
                <path d="M9.32401448,15.9416016 C9.32401448,16.1897461 9.44691495,16.4217773 9.65257914,16.5621094 C9.9017492,16.7317383 10.1126868,16.81875 10.1933998,16.8360352 C10.5574137,16.8893555 14.7285588,17.3351074 17.4637167,17.6241211 L17.2666951,19.4885742 C15.1360786,19.2635742 10.149308,18.7344727 9.8604406,18.6812988 C9.35096762,18.5875488 8.84999075,18.2840332 8.59671912,18.1114746 C8.3554592,17.9469727 8.14759773,17.7457031 7.97694334,17.5186523 L7.96830075,17.5274414 L3.46903045,13.1121094 C3.2903194,12.9366211 3.05403997,12.8416992 2.80369799,12.84375 C2.55335605,12.8460938 2.31883444,12.9457031 2.14334603,13.1244141 C1.96800413,13.303418 1.87278925,13.5395508 1.87498649,13.7900391 C1.87733024,14.0403809 1.97708619,14.2749023 2.1557972,14.4503906 L9.1138093,21.2784668 C9.66971781,21.8245605 10.4053628,22.125 11.1843672,22.125 L24,22.125 L24,24 L11.1843672,24 C9.91097773,24 8.70921919,23.5086914 7.80042957,22.6168946 L0.842563985,15.7886719 C0.30628437,15.2623535 0.00716311238,14.5589355 0.000131858086,13.8076172 C-0.0070459088,13.0564453 0.279038278,12.3474609 0.805063962,11.8113281 C1.33138267,11.2750488 2.03480105,10.9759277 2.78611986,10.9688965 C3.53612032,10.9621582 4.24613053,11.2476563 4.78255665,11.7738281 L7.76249009,14.6985352 C8.00389648,14.2517578 8.37069358,13.8826172 8.81556689,13.6385742 C6.9919818,12.2503418 5.81248889,10.0573242 5.81248889,7.59375 C5.81248889,3.40649415 9.21898512,0 13.4062435,0 C14.9288031,0 16.3477981,0.450878925 17.5376914,1.22534179 L16.2227003,2.6182617 C15.3909615,2.14541018 14.429584,1.875 13.4062435,1.875 C10.253019,1.875 7.68749004,4.44052733 7.68749004,7.59375 C7.68749004,10.7469727 10.253019,13.3125 13.4062435,13.3125 C16.5105423,13.3125 19.045163,10.8260742 19.1230927,7.7400879 L20.8189434,5.94375 C20.9371563,6.47519531 20.9999982,7.02714844 20.9999982,7.59375 C20.9999982,9.94335938 19.927146,12.0470215 18.2456508,13.4411133 C19.9659643,13.7022949 21.5976548,14.3635254 23.0315912,15.3896484 L24,16.0825196 L24,18.3881836 L21.9404284,16.9145508 C20.3957498,15.8091797 18.5755338,15.2126953 16.6763627,15.1898438 C16.6376908,15.1892578 16.5996049,15.1889648 16.5602005,15.1891113 L10.0744544,15.191748 C9.66048928,15.1916016 9.32401448,15.5280762 9.32401448,15.9416016 L9.32401448,15.9416016 Z M10.8178631,5.59702148 L9.52587009,6.95581054 L13.6151304,10.8433594 L21.2129866,2.79492188 L19.8495092,1.50791018 L13.543353,8.18789063 L10.8178631,5.59702148 Z" id="Shape"></path>
            </g>
        </g>
    </g>
</svg>