<?xml version="1.0" encoding="UTF-8"?>
<svg width="20px" height="20px" viewBox="0 0 30 30" version="1.1" xmlns="http://www.w3.org/2000/svg" xmlns:xlink="http://www.w3.org/1999/xlink">
    <!-- Generator: sketchtool 53.2 (72643) - https://sketchapp.com -->
    <title>1E38B6A0-3B84-416F-B6E8-2A733B419309</title>
    <desc>Created with sketchtool.</desc>
    <g id="Symbols" stroke="none" stroke-width="1" fill="none" fill-rule="evenodd" opacity="0.8">
        <g id="Icon/Settings/Unselected" fill="#000000" fill-rule="nonzero">
            <g id="gear" transform="translate(3.000000, 3.000000)">
                <path d="M22.2579797,8.93499755 L21.0875671,8.73651122 C20.9833799,8.44647216 20.8656428,8.16192628 20.7354546,7.88525391 L21.424665,6.92102053 C22.0243366,6.07855223 21.9280229,4.94073487 21.1979799,4.21783448 L19.791544,2.81121825 C19.3940212,2.41369631 18.8670426,2.19470212 18.3078374,2.19470212 C17.8674678,2.19470212 17.4463244,2.33038331 17.0929301,2.5847168 L16.1250327,3.27410887 C15.8256546,3.13256836 15.521882,3.00750731 15.2160953,2.89947511 L15.0225524,1.75268555 C14.8522639,0.7369995 13.9810464,0 12.9508929,0 L10.9638283,0 C9.93385801,0 9.06264044,0.7369995 8.89271823,1.75067137 L8.68928763,2.94232177 C8.40199458,3.04724119 8.11872983,3.16644286 7.84132447,3.29956055 L6.89100514,2.61511228 C6.5346812,2.35858153 6.11188983,2.22308348 5.66822437,2.22308348 C5.10352596,2.22308348 4.57636424,2.44244386 4.18323603,2.84088136 L2.77350416,4.2460327 C2.04547534,4.97406005 1.95007717,6.11096194 2.54681911,6.94921875 L3.24719898,7.93322756 C3.11810933,8.21099855 3.00202025,8.49682617 2.89948098,8.78851317 L1.752506,8.98205569 C0.737000992,9.15252684 0,10.0237427 0,11.0537109 L0,13.0407715 C0,14.0707397 0.737000992,14.9419556 1.75067492,15.1120605 L2.94232772,15.3153076 C3.04724736,15.6027832 3.16663241,15.8862305 3.29956723,16.1634521 L2.61768108,17.1119385 C2.01800945,17.9544067 2.11432314,19.0924072 2.84436613,19.8151245 L4.25080208,21.2217407 C4.64832482,21.6192627 5.17530345,21.8382568 5.73450871,21.8382568 C6.17487824,21.8382568 6.59602167,21.7025757 6.94923282,21.4484253 L7.93324363,20.7480469 C8.19178902,20.8681641 8.45985597,20.9782104 8.73506406,21.0772705 L8.93007177,22.2474975 C9.10054332,23.2630005 9.97176093,24 11.0017313,24 L12.9933735,24 C14.0233438,24 14.8947445,23.2630005 15.0648498,22.2487793 L15.2633366,21.078186 C15.5533762,20.973999 15.8379227,20.8562622 16.1145956,20.7260742 L17.0757182,21.4130859 C17.4320421,21.6696167 17.8548335,21.8052979 18.298499,21.8052979 C18.8575211,21.8052979 19.3844997,21.5863037 19.7820225,21.1887817 L21.1884584,19.7821655 C21.9166704,19.0541382 22.0118854,17.9172363 21.4151435,17.0789795 L20.7252007,16.1101685 C20.8588679,15.8270874 20.9769712,15.5427246 21.0785949,15.2600098 L22.2473595,15.0651855 C23.2628645,14.8947143 23.9998655,14.0234985 23.9998655,12.9935302 L23.9998655,11.010498 C24.0114012,9.97943114 23.2797102,9.10711669 22.2579797,8.93499755 Z M22.5936127,12.9935302 C22.5936127,13.3339233 22.3500819,13.6219482 22.0153644,13.6781616 L20.4651904,13.9365234 C20.179179,13.9841309 19.9484657,14.1859131 19.862589,14.4633179 C19.7248935,14.9095459 19.5357451,15.3656616 19.3008203,15.8182983 C19.1678855,16.0735474 19.1891258,16.3776855 19.3561183,16.6116943 L20.2696333,17.8945312 C20.4666552,18.1713867 20.4349779,18.5471191 20.1941937,18.7879028 L18.7877578,20.1943359 C18.6539074,20.328186 18.4847176,20.3990479 18.298499,20.3990479 C18.1516481,20.3990479 18.013037,20.3551026 17.895483,20.2705078 L16.6181367,19.357544 C16.3832119,19.1889038 16.0777914,19.1676636 15.8212601,19.3018799 C15.3916938,19.5267334 14.9352109,19.7158814 14.4644458,19.8636474 C14.189787,19.949707 13.9892861,20.1796875 13.9414955,20.4627685 L13.6781893,22.0145874 C13.6219758,22.3502198 13.3339503,22.59375 12.9933735,22.59375 L11.0017313,22.59375 C10.6611544,22.59375 10.373312,22.3502198 10.3170985,22.0155029 L10.0587362,20.465332 C10.0114949,20.1811523 9.8115433,19.9508057 9.53688455,19.8640137 C9.07289437,19.7175293 8.63105995,19.5358887 8.22328328,19.3240357 C8.11213802,19.2663574 7.99183749,19.2379761 7.87208625,19.2379761 C7.71717869,19.2379761 7.5630036,19.2855835 7.4309843,19.3795166 L6.1307497,20.3049316 C6.01356196,20.3893433 5.88026091,20.4320068 5.73450871,20.4320068 C5.54829003,20.4320068 5.37910024,20.3613281 5.2452499,20.2272949 L3.83625046,18.8184815 C3.5958325,18.5804443 3.56525381,18.2058105 3.76136018,17.9302368 L4.669382,16.6671753 C4.84021974,16.4300537 4.86109383,16.1224365 4.72339824,15.8637085 C4.49250178,15.4306641 4.30115615,14.9765625 4.15448838,14.513855 C4.06769624,14.2410278 3.83863082,14.041626 3.55664783,13.9934693 L1.98523349,13.7255859 C1.64978359,13.6691895 1.40625285,13.3811646 1.40625285,13.0407715 L1.40625285,11.0537109 C1.40625285,10.7133179 1.64978359,10.425293 1.98578282,10.3688965 L3.51691387,10.1105347 C3.80310826,10.0623779 4.03363853,9.86004638 4.11878278,9.58172606 C4.26325327,9.10894777 4.44910567,8.65173338 4.67121308,8.22326663 C4.80341548,7.96856691 4.7821752,7.66516116 4.615732,7.43096925 L3.69251238,6.13385011 C3.49530736,5.85699464 3.5269847,5.48126222 3.76703642,5.24121094 L5.17823314,3.83477784 L5.1833601,3.82946775 C5.31025244,3.70037841 5.48237193,3.62933348 5.66822437,3.62933348 C5.81507527,3.62933348 5.95386948,3.6732788 6.06922613,3.7564087 L7.33778339,4.66955569 C7.5752717,4.84057617 7.8832557,4.86108398 8.14106872,4.72338867 C8.57411402,4.49249269 9.0282165,4.30114744 9.49037569,4.15466306 C9.76320336,4.06805419 9.96260561,3.83935547 10.0111286,3.55664063 L10.2791956,1.98522947 C10.3354091,1.64978025 10.6234346,1.40625 10.9640115,1.40625 L12.951076,1.40625 C13.2914698,1.40625 13.5794952,1.64978025 13.6358919,1.9857788 L13.8942542,3.51745603 C13.9425941,3.80383303 14.1452923,4.03417969 14.4237963,4.11914063 C14.8985898,4.26342773 15.3721014,4.45825195 15.831514,4.69848633 C16.0867635,4.83178711 16.3909023,4.81091306 16.6260102,4.64373778 L17.9117795,3.72802734 C18.0287841,3.64361573 18.1620851,3.60095213 18.3080204,3.60095213 C18.494056,3.60095213 18.6632458,3.67163086 18.7972792,3.80566406 L20.2060956,5.21447756 C20.4465136,5.45251463 20.4772753,5.82714844 20.2798873,6.104187 L19.366006,7.3828125 C19.1982811,7.61791992 19.177407,7.92297366 19.3112574,8.17858884 C19.5362945,8.6081543 19.7252597,9.06463622 19.8732092,9.53558348 C19.959452,9.81024169 20.1892499,10.0105591 20.4723315,10.0583496 L22.0228717,10.3214722 L22.0241535,10.3216553 C22.3586879,10.3778686 22.5983734,10.6616821 22.5936127,10.996582 L22.5936127,12.9935302 Z" id="Shape"></path>
                <path d="M12,7 C9.24297598,7 7,9.24297598 7,12 C7,14.757024 9.24297598,17 12,17 C14.757024,17 17,14.757024 17,12 C17,9.24297598 14.757024,7 12,7 Z M12,15.4931722 C10.0738895,15.4931722 8.50682781,13.9261105 8.50682781,12 C8.50682781,10.0738895 10.0738895,8.50682781 12,8.50682781 C13.9261105,8.50682781 15.4931722,10.0738895 15.4931722,12 C15.4931722,13.9261105 13.9261105,15.4931722 12,15.4931722 Z" id="Shape"></path>
            </g>
        </g>
    </g>
</svg>